<svg xmlns="http://www.w3.org/2000/svg" xmlns:xlink="http://www.w3.org/1999/xlink" width="250" zoomAndPan="magnify" viewBox="0 0 187.5 112.499997" height="150" preserveAspectRatio="xMidYMid meet" version="1.0"><defs><g/><clipPath id="id1"><path d="M 121.113281 23.039062 L 136 23.039062 L 136 38 L 121.113281 38 Z M 121.113281 23.039062 " clip-rule="nonzero"/></clipPath><clipPath id="id2"><path d="M 121.113281 40 L 136 40 L 136 55 L 121.113281 55 Z M 121.113281 40 " clip-rule="nonzero"/></clipPath><clipPath id="id3"><path d="M 121.113281 57 L 136 57 L 136 72 L 121.113281 72 Z M 121.113281 57 " clip-rule="nonzero"/></clipPath><clipPath id="id4"><path d="M 121.113281 74 L 136 74 L 136 88.921875 L 121.113281 88.921875 Z M 121.113281 74 " clip-rule="nonzero"/></clipPath><clipPath id="id5"><path d="M 138 74 L 153 74 L 153 88.921875 L 138 88.921875 Z M 138 74 " clip-rule="nonzero"/></clipPath><clipPath id="id6"><path d="M 155 74 L 170 74 L 170 88.921875 L 155 88.921875 Z M 155 74 " clip-rule="nonzero"/></clipPath><clipPath id="id7"><path d="M 172 74 L 186.835938 74 L 186.835938 88.921875 L 172 88.921875 Z M 172 74 " clip-rule="nonzero"/></clipPath></defs><g clip-path="url(#id1)"><path fill="#004aad" d="M 121.113281 23.039062 L 135.953125 23.039062 L 135.953125 37.882812 L 121.113281 37.882812 Z M 121.113281 23.039062 " fill-opacity="1" fill-rule="nonzero"/></g><g clip-path="url(#id2)"><path fill="#004aad" d="M 121.113281 40.054688 L 135.953125 40.054688 L 135.953125 54.894531 L 121.113281 54.894531 Z M 121.113281 40.054688 " fill-opacity="1" fill-rule="nonzero"/></g><g clip-path="url(#id3)"><path fill="#004aad" d="M 121.113281 57.066406 L 135.953125 57.066406 L 135.953125 71.910156 L 121.113281 71.910156 Z M 121.113281 57.066406 " fill-opacity="1" fill-rule="nonzero"/></g><g clip-path="url(#id4)"><path fill="#004aad" d="M 121.113281 74.082031 L 135.953125 74.082031 L 135.953125 88.921875 L 121.113281 88.921875 Z M 121.113281 74.082031 " fill-opacity="1" fill-rule="nonzero"/></g><path fill="#a6a6a6" d="M 138.125 40.054688 L 152.96875 40.054688 L 152.96875 54.894531 L 138.125 54.894531 Z M 138.125 40.054688 " fill-opacity="1" fill-rule="nonzero"/><path fill="#a6a6a6" d="M 138.125 57.066406 L 152.96875 57.066406 L 152.96875 71.910156 L 138.125 71.910156 Z M 138.125 57.066406 " fill-opacity="1" fill-rule="nonzero"/><g clip-path="url(#id5)"><path fill="#a6a6a6" d="M 138.125 74.082031 L 152.96875 74.082031 L 152.96875 88.921875 L 138.125 88.921875 Z M 138.125 74.082031 " fill-opacity="1" fill-rule="nonzero"/></g><path fill="#d9d9d9" d="M 155.140625 57.066406 L 169.984375 57.066406 L 169.984375 71.910156 L 155.140625 71.910156 Z M 155.140625 57.066406 " fill-opacity="1" fill-rule="nonzero"/><g clip-path="url(#id6)"><path fill="#d9d9d9" d="M 155.140625 74.082031 L 169.984375 74.082031 L 169.984375 88.921875 L 155.140625 88.921875 Z M 155.140625 74.082031 " fill-opacity="1" fill-rule="nonzero"/></g><g clip-path="url(#id7)"><path fill="#ffffff" d="M 172.15625 74.082031 L 186.996094 74.082031 L 186.996094 88.921875 L 172.15625 88.921875 Z M 172.15625 74.082031 " fill-opacity="1" fill-rule="nonzero"/></g><g fill="#ffffff" fill-opacity="1"><g transform="translate(3.439078, 50.352984)"><g><path d="M 4.4375 -16.328125 L 4.4375 0 L 1.25 0 L 1.25 -22.546875 L 5.703125 -22.546875 L 9.34375 -9.046875 L 9.34375 -22.546875 L 12.5 -22.546875 L 12.5 0 L 8.859375 0 Z M 4.4375 -16.328125 "/></g></g></g><g fill="#ffffff" fill-opacity="1"><g transform="translate(17.192791, 50.352984)"><g><path d="M 4.546875 -5.1875 C 4.546875 -4.375 4.707031 -3.800781 5.03125 -3.46875 C 5.363281 -3.132812 5.8125 -2.96875 6.375 -2.96875 C 6.9375 -2.96875 7.382812 -3.132812 7.71875 -3.46875 C 8.050781 -3.800781 8.21875 -4.375 8.21875 -5.1875 L 8.21875 -17.359375 C 8.21875 -18.171875 8.050781 -18.742188 7.71875 -19.078125 C 7.382812 -19.410156 6.9375 -19.578125 6.375 -19.578125 C 5.8125 -19.578125 5.363281 -19.410156 5.03125 -19.078125 C 4.707031 -18.742188 4.546875 -18.171875 4.546875 -17.359375 Z M 1 -17.125 C 1 -18.957031 1.457031 -20.359375 2.375 -21.328125 C 3.300781 -22.304688 4.632812 -22.796875 6.375 -22.796875 C 8.113281 -22.796875 9.441406 -22.304688 10.359375 -21.328125 C 11.285156 -20.359375 11.75 -18.957031 11.75 -17.125 L 11.75 -5.40625 C 11.75 -3.582031 11.285156 -2.179688 10.359375 -1.203125 C 9.441406 -0.234375 8.113281 0.25 6.375 0.25 C 4.632812 0.25 3.300781 -0.234375 2.375 -1.203125 C 1.457031 -2.179688 1 -3.582031 1 -5.40625 Z M 1 -17.125 "/></g></g></g><g fill="#ffffff" fill-opacity="1"><g transform="translate(29.94799, 50.352984)"><g><path d="M 8.6875 0 C 8.644531 -0.144531 8.601562 -0.28125 8.5625 -0.40625 C 8.519531 -0.539062 8.484375 -0.703125 8.453125 -0.890625 C 8.421875 -1.085938 8.398438 -1.335938 8.390625 -1.640625 C 8.378906 -1.941406 8.375 -2.316406 8.375 -2.765625 L 8.375 -6.3125 C 8.375 -7.363281 8.191406 -8.101562 7.828125 -8.53125 C 7.460938 -8.957031 6.867188 -9.171875 6.046875 -9.171875 L 4.828125 -9.171875 L 4.828125 0 L 1.28125 0 L 1.28125 -22.546875 L 6.640625 -22.546875 C 8.484375 -22.546875 9.816406 -22.113281 10.640625 -21.25 C 11.472656 -20.394531 11.890625 -19.097656 11.890625 -17.359375 L 11.890625 -15.59375 C 11.890625 -13.269531 11.113281 -11.742188 9.5625 -11.015625 C 10.46875 -10.648438 11.085938 -10.050781 11.421875 -9.21875 C 11.753906 -8.394531 11.921875 -7.394531 11.921875 -6.21875 L 11.921875 -2.734375 C 11.921875 -2.179688 11.941406 -1.691406 11.984375 -1.265625 C 12.023438 -0.847656 12.128906 -0.425781 12.296875 0 Z M 4.828125 -19.328125 L 4.828125 -12.390625 L 6.21875 -12.390625 C 6.882812 -12.390625 7.40625 -12.5625 7.78125 -12.90625 C 8.15625 -13.25 8.34375 -13.875 8.34375 -14.78125 L 8.34375 -17 C 8.34375 -17.820312 8.195312 -18.414062 7.90625 -18.78125 C 7.613281 -19.144531 7.15625 -19.328125 6.53125 -19.328125 Z M 4.828125 -19.328125 "/></g></g></g><g fill="#ffffff" fill-opacity="1"><g transform="translate(42.896454, 50.352984)"><g><path d="M 0.25 -22.546875 L 11.203125 -22.546875 L 11.203125 -19.328125 L 7.5 -19.328125 L 7.5 0 L 3.96875 0 L 3.96875 -19.328125 L 0.25 -19.328125 Z M 0.25 -22.546875 "/></g></g></g><g fill="#ffffff" fill-opacity="1"><g transform="translate(54.363252, 50.352984)"><g><path d="M 4.828125 0 L 1.28125 0 L 1.28125 -22.546875 L 4.828125 -22.546875 L 4.828125 -12.875 L 8.859375 -12.875 L 8.859375 -22.546875 L 12.46875 -22.546875 L 12.46875 0 L 8.859375 0 L 8.859375 -9.65625 L 4.828125 -9.65625 Z M 4.828125 0 "/></g></g></g><g fill="#ffffff" fill-opacity="1"><g transform="translate(68.116965, 50.352984)"><g><path d="M 4.828125 -13.046875 L 9.6875 -13.046875 L 9.6875 -9.828125 L 4.828125 -9.828125 L 4.828125 -3.21875 L 10.953125 -3.21875 L 10.953125 0 L 1.28125 0 L 1.28125 -22.546875 L 10.953125 -22.546875 L 10.953125 -19.328125 L 4.828125 -19.328125 Z M 4.828125 -13.046875 "/></g></g></g><g fill="#ffffff" fill-opacity="1"><g transform="translate(79.970284, 50.352984)"><g><path d="M 8.6875 0 C 8.644531 -0.144531 8.601562 -0.28125 8.5625 -0.40625 C 8.519531 -0.539062 8.484375 -0.703125 8.453125 -0.890625 C 8.421875 -1.085938 8.398438 -1.335938 8.390625 -1.640625 C 8.378906 -1.941406 8.375 -2.316406 8.375 -2.765625 L 8.375 -6.3125 C 8.375 -7.363281 8.191406 -8.101562 7.828125 -8.53125 C 7.460938 -8.957031 6.867188 -9.171875 6.046875 -9.171875 L 4.828125 -9.171875 L 4.828125 0 L 1.28125 0 L 1.28125 -22.546875 L 6.640625 -22.546875 C 8.484375 -22.546875 9.816406 -22.113281 10.640625 -21.25 C 11.472656 -20.394531 11.890625 -19.097656 11.890625 -17.359375 L 11.890625 -15.59375 C 11.890625 -13.269531 11.113281 -11.742188 9.5625 -11.015625 C 10.46875 -10.648438 11.085938 -10.050781 11.421875 -9.21875 C 11.753906 -8.394531 11.921875 -7.394531 11.921875 -6.21875 L 11.921875 -2.734375 C 11.921875 -2.179688 11.941406 -1.691406 11.984375 -1.265625 C 12.023438 -0.847656 12.128906 -0.425781 12.296875 0 Z M 4.828125 -19.328125 L 4.828125 -12.390625 L 6.21875 -12.390625 C 6.882812 -12.390625 7.40625 -12.5625 7.78125 -12.90625 C 8.15625 -13.25 8.34375 -13.875 8.34375 -14.78125 L 8.34375 -17 C 8.34375 -17.820312 8.195312 -18.414062 7.90625 -18.78125 C 7.613281 -19.144531 7.15625 -19.328125 6.53125 -19.328125 Z M 4.828125 -19.328125 "/></g></g></g><g fill="#ffffff" fill-opacity="1"><g transform="translate(92.918748, 50.352984)"><g><path d="M 4.4375 -16.328125 L 4.4375 0 L 1.25 0 L 1.25 -22.546875 L 5.703125 -22.546875 L 9.34375 -9.046875 L 9.34375 -22.546875 L 12.5 -22.546875 L 12.5 0 L 8.859375 0 Z M 4.4375 -16.328125 "/></g></g></g><g fill="#ffffff" fill-opacity="1"><g transform="translate(44.282943, 77.407767)"><g><path d="M 0.84375 -17.125 C 0.84375 -18.957031 1.273438 -20.359375 2.140625 -21.328125 C 3.015625 -22.304688 4.316406 -22.796875 6.046875 -22.796875 C 7.785156 -22.796875 9.085938 -22.304688 9.953125 -21.328125 C 10.828125 -20.359375 11.265625 -18.957031 11.265625 -17.125 L 11.265625 -16.421875 L 7.921875 -16.421875 L 7.921875 -17.359375 C 7.921875 -18.171875 7.765625 -18.742188 7.453125 -19.078125 C 7.140625 -19.410156 6.707031 -19.578125 6.15625 -19.578125 C 5.59375 -19.578125 5.15625 -19.410156 4.84375 -19.078125 C 4.53125 -18.742188 4.375 -18.171875 4.375 -17.359375 C 4.375 -16.585938 4.546875 -15.90625 4.890625 -15.3125 C 5.234375 -14.71875 5.660156 -14.15625 6.171875 -13.625 C 6.691406 -13.101562 7.25 -12.578125 7.84375 -12.046875 C 8.4375 -11.523438 8.988281 -10.953125 9.5 -10.328125 C 10.007812 -9.710938 10.4375 -9.003906 10.78125 -8.203125 C 11.125 -7.410156 11.296875 -6.476562 11.296875 -5.40625 C 11.296875 -3.582031 10.847656 -2.179688 9.953125 -1.203125 C 9.066406 -0.234375 7.753906 0.25 6.015625 0.25 C 4.273438 0.25 2.957031 -0.234375 2.0625 -1.203125 C 1.175781 -2.179688 0.734375 -3.582031 0.734375 -5.40625 L 0.734375 -6.796875 L 4.09375 -6.796875 L 4.09375 -5.1875 C 4.09375 -4.375 4.257812 -3.804688 4.59375 -3.484375 C 4.925781 -3.160156 5.367188 -3 5.921875 -3 C 6.484375 -3 6.929688 -3.160156 7.265625 -3.484375 C 7.597656 -3.804688 7.765625 -4.375 7.765625 -5.1875 C 7.765625 -5.957031 7.59375 -6.632812 7.25 -7.21875 C 6.90625 -7.8125 6.472656 -8.367188 5.953125 -8.890625 C 5.441406 -9.421875 4.890625 -9.945312 4.296875 -10.46875 C 3.703125 -11 3.148438 -11.578125 2.640625 -12.203125 C 2.128906 -12.828125 1.703125 -13.535156 1.359375 -14.328125 C 1.015625 -15.117188 0.84375 -16.050781 0.84375 -17.125 Z M 0.84375 -17.125 "/></g></g></g><g fill="#ffffff" fill-opacity="1"><g transform="translate(56.329521, 77.407767)"><g><path d="M 0.25 -22.546875 L 11.203125 -22.546875 L 11.203125 -19.328125 L 7.5 -19.328125 L 7.5 0 L 3.96875 0 L 3.96875 -19.328125 L 0.25 -19.328125 Z M 0.25 -22.546875 "/></g></g></g><g fill="#ffffff" fill-opacity="1"><g transform="translate(67.796318, 77.407767)"><g><path d="M 12.75 0 L 9.171875 0 L 8.5625 -4.09375 L 4.21875 -4.09375 L 3.609375 0 L 0.359375 0 L 3.96875 -22.546875 L 9.140625 -22.546875 Z M 4.671875 -7.15625 L 8.078125 -7.15625 L 6.375 -18.546875 Z M 4.671875 -7.15625 "/></g></g></g><g fill="#ffffff" fill-opacity="1"><g transform="translate(80.905828, 77.407767)"><g><path d="M 11.5625 -8.40625 L 11.5625 -5.40625 C 11.5625 -3.582031 11.113281 -2.179688 10.21875 -1.203125 C 9.332031 -0.234375 8.019531 0.25 6.28125 0.25 C 4.539062 0.25 3.222656 -0.234375 2.328125 -1.203125 C 1.441406 -2.179688 1 -3.582031 1 -5.40625 L 1 -17.125 C 1 -18.957031 1.441406 -20.359375 2.328125 -21.328125 C 3.222656 -22.304688 4.539062 -22.796875 6.28125 -22.796875 C 8.019531 -22.796875 9.332031 -22.304688 10.21875 -21.328125 C 11.113281 -20.359375 11.5625 -18.957031 11.5625 -17.125 L 11.5625 -14.9375 L 8.21875 -14.9375 L 8.21875 -17.359375 C 8.21875 -18.171875 8.050781 -18.742188 7.71875 -19.078125 C 7.382812 -19.410156 6.9375 -19.578125 6.375 -19.578125 C 5.8125 -19.578125 5.363281 -19.410156 5.03125 -19.078125 C 4.707031 -18.742188 4.546875 -18.171875 4.546875 -17.359375 L 4.546875 -5.1875 C 4.546875 -4.375 4.707031 -3.804688 5.03125 -3.484375 C 5.363281 -3.160156 5.8125 -3 6.375 -3 C 6.9375 -3 7.382812 -3.160156 7.71875 -3.484375 C 8.050781 -3.804688 8.21875 -4.375 8.21875 -5.1875 L 8.21875 -8.40625 Z M 11.5625 -8.40625 "/></g></g></g><g fill="#ffffff" fill-opacity="1"><g transform="translate(93.338927, 77.407767)"><g><path d="M 5.921875 -8.984375 L 4.828125 -6.921875 L 4.828125 0 L 1.28125 0 L 1.28125 -22.546875 L 4.828125 -22.546875 L 4.828125 -12.71875 L 9.46875 -22.546875 L 13.015625 -22.546875 L 8.078125 -12.5 L 13.015625 0 L 9.375 0 Z M 5.921875 -8.984375 "/></g></g></g></svg>